<svg width="135" height="42" viewBox="0 0 135 42" fill="none" xmlns="http://www.w3.org/2000/svg">
<rect x="75.8505" width="59.1495" height="41.0567" fill="#1D3557"/>
<path d="M14.8928 13.141V15.339H10.5204V29.567H7.82608V15.339H3.43004V13.141H14.8928ZM20.3159 18.4351C20.7098 17.7733 21.2297 17.2613 21.8757 16.8989C22.5375 16.5207 23.3175 16.3316 24.2156 16.3316V19.1205H23.5302C22.4745 19.1205 21.6709 19.3884 21.1194 19.9241C20.5837 20.4598 20.3159 21.3894 20.3159 22.713V29.567H17.6215V16.5443H20.3159V18.4351ZM25.7941 22.9966C25.7941 21.6888 26.062 20.5307 26.5977 19.5223C27.1492 18.5139 27.8897 17.7339 28.8193 17.1825C29.7647 16.6152 30.8046 16.3316 31.9391 16.3316C32.9633 16.3316 33.8535 16.5365 34.6098 16.9461C35.3819 17.34 35.9964 17.8364 36.4533 18.4351V16.5443H39.1713V29.567H36.4533V27.629C35.9964 28.2435 35.374 28.7556 34.5862 29.1652C33.7984 29.5749 32.9002 29.7797 31.8918 29.7797C30.7731 29.7797 29.749 29.4961 28.8193 28.9289C27.8897 28.3459 27.1492 27.5423 26.5977 26.5181C26.062 25.4782 25.7941 24.3044 25.7941 22.9966ZM36.4533 23.0439C36.4533 22.1457 36.2642 21.3658 35.8861 20.704C35.5237 20.0423 35.0431 19.5381 34.4444 19.1914C33.8456 18.8448 33.1996 18.6715 32.5063 18.6715C31.8131 18.6715 31.167 18.8448 30.5683 19.1914C29.9696 19.5223 29.4811 20.0186 29.1029 20.6804C28.7406 21.3264 28.5594 22.0985 28.5594 22.9966C28.5594 23.8947 28.7406 24.6825 29.1029 25.36C29.4811 26.0376 29.9696 26.5575 30.5683 26.9199C31.1828 27.2666 31.8288 27.4399 32.5063 27.4399C33.1996 27.4399 33.8456 27.2666 34.4444 26.9199C35.0431 26.5733 35.5237 26.0691 35.8861 25.4073C36.2642 24.7298 36.4533 23.942 36.4533 23.0439ZM41.8121 23.0439C41.8121 21.7046 42.0799 20.5307 42.6157 19.5223C43.1671 18.4981 43.9234 17.7103 44.8846 17.1588C45.8457 16.6074 46.9487 16.3316 48.1934 16.3316C49.7691 16.3316 51.069 16.7098 52.0931 17.4661C53.1331 18.2066 53.8342 19.2702 54.1966 20.6568H51.2896C51.0532 20.0107 50.6751 19.5065 50.1551 19.1441C49.6351 18.7818 48.9813 18.6006 48.1934 18.6006C47.0905 18.6006 46.2081 18.9945 45.5464 19.7823C44.9003 20.5543 44.5773 21.6415 44.5773 23.0439C44.5773 24.4462 44.9003 25.5412 45.5464 26.3291C46.2081 27.1169 47.0905 27.5108 48.1934 27.5108C49.7533 27.5108 50.7854 26.8254 51.2896 25.4546H54.1966C53.8185 26.7781 53.1094 27.8338 52.0695 28.6216C51.0296 29.3937 49.7376 29.7797 48.1934 29.7797C46.9487 29.7797 45.8457 29.504 44.8846 28.9525C43.9234 28.3853 43.1671 27.5975 42.6157 26.589C42.0799 25.5649 41.8121 24.3832 41.8121 23.0439ZM62.0341 23.0675L68.0373 29.567H64.3975L59.5761 23.9656V29.567H56.8817V12.0774H59.5761V22.2403L64.303 16.5443H68.0373L62.0341 23.0675Z" fill="white"/>
<path d="M94.7695 12.9755V16.2135H90.3734V29.567H86.3319V16.2135H81.9359V12.9755H94.7695ZM103.463 29.7325C101.903 29.7325 100.469 29.3701 99.1613 28.6453C97.8692 27.9205 96.8372 26.9121 96.0651 25.62C95.3088 24.3122 94.9307 22.8469 94.9307 21.224C94.9307 19.6011 95.3088 18.1436 96.0651 16.8516C96.8372 15.5596 97.8692 14.5512 99.1613 13.8264C100.469 13.1016 101.903 12.7392 103.463 12.7392C105.023 12.7392 106.449 13.1016 107.741 13.8264C109.048 14.5512 110.073 15.5596 110.813 16.8516C111.569 18.1436 111.948 19.6011 111.948 21.224C111.948 22.8469 111.569 24.3122 110.813 25.62C110.057 26.9121 109.033 27.9205 107.741 28.6453C106.449 29.3701 105.023 29.7325 103.463 29.7325ZM103.463 26.0455C104.786 26.0455 105.842 25.6043 106.63 24.7219C107.433 23.8396 107.835 22.6736 107.835 21.224C107.835 19.7586 107.433 18.5927 106.63 17.7261C105.842 16.8437 104.786 16.4025 103.463 16.4025C102.123 16.4025 101.052 16.8358 100.248 17.7024C99.4606 18.569 99.0667 19.7429 99.0667 21.224C99.0667 22.6893 99.4606 23.8632 100.248 24.7455C101.052 25.6122 102.123 26.0455 103.463 26.0455ZM120.861 29.7325C119.301 29.7325 117.867 29.3701 116.559 28.6453C115.267 27.9205 114.235 26.9121 113.463 25.62C112.707 24.3122 112.329 22.8469 112.329 21.224C112.329 19.6011 112.707 18.1436 113.463 16.8516C114.235 15.5596 115.267 14.5512 116.559 13.8264C117.867 13.1016 119.301 12.7392 120.861 12.7392C122.421 12.7392 123.847 13.1016 125.139 13.8264C126.447 14.5512 127.471 15.5596 128.211 16.8516C128.968 18.1436 129.346 19.6011 129.346 21.224C129.346 22.8469 128.968 24.3122 128.211 25.62C127.455 26.9121 126.431 27.9205 125.139 28.6453C123.847 29.3701 122.421 29.7325 120.861 29.7325ZM120.861 26.0455C122.184 26.0455 123.24 25.6043 124.028 24.7219C124.832 23.8396 125.233 22.6736 125.233 21.224C125.233 19.7586 124.832 18.5927 124.028 17.7261C123.24 16.8437 122.184 16.4025 120.861 16.4025C119.522 16.4025 118.45 16.8358 117.647 17.7024C116.859 18.569 116.465 19.7429 116.465 21.224C116.465 22.6893 116.859 23.8632 117.647 24.7455C118.45 25.6122 119.522 26.0455 120.861 26.0455Z" fill="#E63946"/>
</svg>
